<svg width="129" height="52" viewBox="0 0 129 52" fill="none" xmlns="http://www.w3.org/2000/svg">
<path d="M1 30H7.34595V20.1964H11.205C17.1221 20.1964 22.1389 17.3352 22.1389 10.8976C22.1389 4.24965 17.2936 2.06171 11.205 2.06171H1V30ZM7.34595 15.2735V6.98457H10.8191C14.1636 6.98457 15.9644 8.03646 15.9644 10.8976C15.9644 13.7588 14.2922 15.2735 10.8191 15.2735H7.34595Z" fill="#0C0C0C"/>
<path d="M24.325 19.0603C24.325 25.9607 28.9987 30 35.0874 30C37.6172 30 40.4471 29.1164 42.6339 27.6438L40.5329 23.899C38.9893 24.8247 37.5314 25.2875 35.9449 25.2875C33.115 25.2875 30.9711 23.899 30.4137 20.7433H43.1484C43.2771 20.2384 43.4057 19.2286 43.4057 18.1346C43.4057 12.4544 40.4042 8.12062 34.3584 8.12062C29.2559 8.12062 24.325 12.2861 24.325 19.0603ZM30.3708 16.9144C30.7996 14.1374 32.5147 12.8331 34.4871 12.8331C37.0169 12.8331 38.0459 14.5161 38.0459 16.9144H30.3708Z" fill="#0C0C0C"/>
<path d="M46.5177 19.0603C46.5177 25.9607 51.1914 30 57.2801 30C59.8099 30 62.6398 29.1164 64.8266 27.6438L62.7256 23.899C61.182 24.8247 59.7241 25.2875 58.1376 25.2875C55.3077 25.2875 53.1638 23.899 52.6064 20.7433H65.3412C65.4698 20.2384 65.5984 19.2286 65.5984 18.1346C65.5984 12.4544 62.597 8.12062 56.5512 8.12062C51.4487 8.12062 46.5177 12.2861 46.5177 19.0603ZM52.5635 16.9144C52.9923 14.1374 54.7074 12.8331 56.6798 12.8331C59.2096 12.8331 60.2387 14.5161 60.2387 16.9144H52.5635Z" fill="#0C0C0C"/>
<path d="M69.9539 30H74.8849L75.3994 27.8121H75.5709C77.2432 29.5792 79.2155 30 81.1022 30C85.6901 30 90.0637 25.8766 90.0637 18.6816C90.0637 12.2861 86.8478 8.12062 81.7025 8.12062C79.7301 8.12062 77.7148 9.00421 76.0854 10.4348L76.257 7.23703V0H69.9539V30ZM76.257 23.6045V15.0631C77.4575 13.7588 78.6152 13.1697 79.9016 13.1697C82.4314 13.1697 83.5891 15.0631 83.5891 18.8079C83.5891 23.0996 81.8311 24.9509 79.6443 24.9509C78.5724 24.9509 77.3718 24.6143 76.257 23.6045Z" fill="#0C0C0C"/>
<path d="M93.2899 19.0603C93.2899 26.0028 98.2638 30 103.666 30C109.026 30 114 26.0028 114 19.0603C114 12.1178 109.026 8.12062 103.666 8.12062C98.2638 8.12062 93.2899 12.1178 93.2899 19.0603ZM99.7645 19.0603C99.7645 15.4418 101.051 13.1276 103.666 13.1276C106.239 13.1276 107.568 15.4418 107.568 19.0603C107.568 22.6788 106.239 24.993 103.666 24.993C101.051 24.993 99.7645 22.6788 99.7645 19.0603Z" fill="#0C0C0C"/>
<path d="M128.929 4.52525C128.929 2.02602 126.903 0 124.404 0H121.172C118.315 0 116 2.31546 116 5.17172V9.0505V12.9293L117.051 11.3535C118.01 9.9147 119.625 9.0505 121.354 9.0505H124.404C126.903 9.0505 128.929 7.02448 128.929 4.52525Z" fill="#0BACA6"/>
<path d="M2.376 42.268H3.48C4.56 42.268 5.136 42.58 5.136 43.48C5.136 44.368 4.56 44.824 3.48 44.824H2.376V42.268ZM6.816 49L4.944 45.724C5.892 45.4 6.516 44.68 6.516 43.48C6.516 41.728 5.256 41.152 3.624 41.152H0.984V49H2.376V45.928H3.564L5.256 49H6.816ZM8.13244 49H12.9684V47.824H9.52444V45.508H12.3444V44.332H9.52444V42.328H12.8484V41.152H8.13244V49ZM15.8626 45.784L16.1386 44.824C16.3906 43.996 16.6186 43.108 16.8346 42.232H16.8826C17.1106 43.096 17.3506 43.996 17.5906 44.824L17.8666 45.784H15.8626ZM18.7906 49H20.2666L17.7106 41.152H16.0786L13.5106 49H14.9386L15.5506 46.876H18.1786L18.7906 49ZM21.1988 49H25.8428V47.824H22.5908V41.152H21.1988V49ZM26.1212 46.48H28.9772V45.472H26.1212V46.48ZM31.8649 49H33.2569V42.328H35.5129V41.152H29.5969V42.328H31.8649V49ZM36.7965 49H38.1885V41.152H36.7965V49ZM40.1481 49H41.4201V45.412C41.4201 44.68 41.3121 43.636 41.2521 42.916H41.3001L41.9241 44.704L43.2801 48.268H43.9161L45.2721 44.704L45.9081 42.916H45.9561C45.8841 43.636 45.7761 44.68 45.7761 45.412V49H47.0841V41.152H45.5481L44.1681 45.016L43.6521 46.504H43.6041L43.0881 45.016L41.6721 41.152H40.1481V49ZM49.0543 49H53.8903V47.824H50.4463V45.508H53.2663V44.332H50.4463V42.328H53.7703V41.152H49.0543V49ZM57.5054 45.1C57.5054 47.704 59.0774 49.144 61.0694 49.144C62.0654 49.144 62.8814 48.736 63.5174 48.004L62.7494 47.152C62.3054 47.644 61.7894 47.932 61.0934 47.932C59.7854 47.932 58.9334 46.852 58.9334 45.064C58.9334 43.3 59.8574 42.22 61.1414 42.22C61.7414 42.22 62.1854 42.472 62.5934 42.868L63.3614 42.004C62.8694 41.476 62.0894 41.008 61.1294 41.008C59.1134 41.008 57.5054 42.532 57.5054 45.1ZM67.4539 49.144C69.4939 49.144 70.9099 47.584 70.9099 45.04C70.9099 42.508 69.4939 41.008 67.4539 41.008C65.4019 41.008 63.9859 42.508 63.9859 45.04C63.9859 47.584 65.4019 49.144 67.4539 49.144ZM67.4539 47.932C66.2179 47.932 65.4139 46.804 65.4139 45.04C65.4139 43.288 66.2179 42.22 67.4539 42.22C68.6779 42.22 69.4819 43.288 69.4819 45.04C69.4819 46.804 68.6779 47.932 67.4539 47.932ZM72.4567 49H73.7767V45.568C73.7767 44.692 73.6687 43.744 73.5967 42.916H73.6447L74.4607 44.584L76.8967 49H78.3247V41.152H77.0047V44.56C77.0047 45.436 77.1127 46.432 77.1847 47.236H77.1367L76.3207 45.568L73.8847 41.152H72.4567V49ZM79.7565 47.992C80.5005 48.724 81.5205 49.144 82.5765 49.144C84.3405 49.144 85.3965 48.088 85.3965 46.816C85.3965 45.676 84.7485 45.088 83.8125 44.692L82.7565 44.248C82.1085 43.984 81.5085 43.756 81.5085 43.144C81.5085 42.568 81.9885 42.22 82.7325 42.22C83.4045 42.22 83.9445 42.472 84.4365 42.892L85.1565 42.004C84.5445 41.392 83.6565 41.008 82.7325 41.008C81.2085 41.008 80.1045 41.968 80.1045 43.216C80.1045 44.368 80.9085 44.98 81.6885 45.304L82.7565 45.772C83.4765 46.072 83.9805 46.276 83.9805 46.924C83.9805 47.536 83.4885 47.932 82.6125 47.932C81.8805 47.932 81.1245 47.572 80.5605 47.044L79.7565 47.992ZM86.7524 45.556C86.7524 48.136 87.9164 49.144 89.7404 49.144C91.5524 49.144 92.7044 48.136 92.7044 45.556V41.152H91.3604V45.664C91.3604 47.368 90.7004 47.932 89.7404 47.932C88.7924 47.932 88.1444 47.368 88.1444 45.664V41.152H86.7524V45.556ZM94.6285 49H99.2725V47.824H96.0205V41.152H94.6285V49ZM100.759 49H102.151V42.328H104.407V41.152H98.4914V42.328H100.759V49ZM105.691 49H107.083V41.152H105.691V49ZM109.043 49H110.363V45.568C110.363 44.692 110.255 43.744 110.183 42.916H110.231L111.047 44.584L113.483 49H114.911V41.152H113.591V44.56C113.591 45.436 113.699 46.432 113.771 47.236H113.723L112.907 45.568L110.471 41.152H109.043V49ZM116.462 45.1C116.462 47.704 118.046 49.144 120.134 49.144C121.202 49.144 122.126 48.712 122.666 48.208V44.752H119.942V45.892H121.418V47.584C121.166 47.812 120.734 47.932 120.302 47.932C118.73 47.932 117.89 46.852 117.89 45.064C117.89 43.3 118.826 42.22 120.218 42.22C120.95 42.22 121.382 42.484 121.778 42.868L122.546 42.004C122.054 41.5 121.298 41.008 120.206 41.008C118.094 41.008 116.462 42.532 116.462 45.1Z" fill="#C9C9C9"/>
</svg>
