<svg width="176" height="38" viewBox="0 0 176 38" fill="none" xmlns="http://www.w3.org/2000/svg">
<path d="M27.4001 10.712L27.7681 9.432C28.1041 8.328 28.4081 7.144 28.6961 5.976H28.7601C29.0641 7.128 29.3841 8.328 29.7041 9.432L30.0721 10.712H27.4001ZM31.3041 15H33.2721L29.8641 4.536H27.6881L24.2641 15H26.1681L26.9841 12.168H30.4881L31.3041 15ZM35.3791 16.152C35.3791 15.784 35.5711 15.432 35.9871 15.112C36.2911 15.192 36.6271 15.224 37.0591 15.224H38.1311C39.0271 15.224 39.5231 15.4 39.5231 16.008C39.5231 16.68 38.6591 17.272 37.3951 17.272C36.1471 17.272 35.3791 16.856 35.3791 16.152ZM33.8431 16.424C33.8431 17.8 35.2351 18.472 37.1071 18.472C39.6671 18.472 41.2991 17.256 41.2991 15.704C41.2991 14.344 40.3071 13.768 38.4191 13.768H37.0271C36.0671 13.768 35.7471 13.496 35.7471 13.048C35.7471 12.696 35.8911 12.504 36.1311 12.296C36.4831 12.44 36.8671 12.504 37.2031 12.504C38.8671 12.504 40.1791 11.576 40.1791 9.832C40.1791 9.288 39.9871 8.808 39.7311 8.504H41.1711V7.144H38.3551C38.0351 7.032 37.6351 6.952 37.2031 6.952C35.5551 6.952 34.0991 7.96 34.0991 9.768C34.0991 10.696 34.5951 11.448 35.1231 11.848V11.912C34.6751 12.232 34.2591 12.76 34.2591 13.368C34.2591 14.008 34.5631 14.424 34.9631 14.68V14.744C34.2431 15.192 33.8431 15.768 33.8431 16.424ZM37.2031 11.352C36.4351 11.352 35.8271 10.776 35.8271 9.768C35.8271 8.776 36.4351 8.216 37.2031 8.216C37.9711 8.216 38.5631 8.792 38.5631 9.768C38.5631 10.776 37.9551 11.352 37.2031 11.352ZM42.6036 12.072C42.6036 14.056 43.3396 15.192 45.0196 15.192C46.0916 15.192 46.8596 14.664 47.5476 13.848H47.5956L47.7396 15H49.2436V7.144H47.4036V12.52C46.8116 13.288 46.3476 13.608 45.6596 13.608C44.8116 13.608 44.4436 13.128 44.4436 11.832V7.144H42.6036V12.072ZM51.2383 12.888C51.2383 14.264 52.1983 15.192 53.5743 15.192C54.5023 15.192 55.3023 14.728 56.0063 14.136H56.0543L56.1983 15H57.7023V10.344C57.7023 8.152 56.7423 6.952 54.7743 6.952C53.5263 6.952 52.4223 7.432 51.5583 7.976L52.2303 9.208C52.9183 8.792 53.6543 8.44 54.4383 8.44C55.4943 8.44 55.8463 9.144 55.8623 9.976C52.6463 10.328 51.2383 11.208 51.2383 12.888ZM53.0303 12.744C53.0303 11.96 53.7343 11.4 55.8623 11.128V12.888C55.2863 13.432 54.7903 13.752 54.1503 13.752C53.4943 13.752 53.0303 13.448 53.0303 12.744ZM59.9493 15H61.7893V10.2C62.2693 9.016 63.0213 8.584 63.6453 8.584C63.9813 8.584 64.1893 8.632 64.4613 8.712L64.7813 7.112C64.5413 7 64.2853 6.952 63.8853 6.952C63.0533 6.952 62.2213 7.512 61.6613 8.536H61.5973L61.4693 7.144H59.9493V15ZM65.2818 11.08C65.2818 13.672 66.5458 15.192 68.5138 15.192C69.3618 15.192 70.1618 14.728 70.7378 14.152H70.8018L70.9298 15H72.4498V3.704H70.6098V6.552L70.6738 7.816C70.0658 7.288 69.5058 6.952 68.6098 6.952C66.8978 6.952 65.2818 8.52 65.2818 11.08ZM67.1858 11.064C67.1858 9.416 68.0018 8.472 69.0098 8.472C69.5378 8.472 70.0658 8.648 70.6098 9.128V12.792C70.0818 13.4 69.5698 13.672 68.9618 13.672C67.8258 13.672 67.1858 12.76 67.1858 11.064ZM74.281 11.08C74.281 13.672 75.977 15.192 78.153 15.192C79.145 15.192 80.089 14.84 80.841 14.344L80.217 13.192C79.641 13.56 79.065 13.768 78.393 13.768C77.129 13.768 76.233 12.968 76.073 11.544H81.065C81.113 11.352 81.145 11.032 81.145 10.68C81.145 8.488 80.025 6.952 77.897 6.952C76.057 6.952 74.281 8.52 74.281 11.08ZM76.057 10.376C76.217 9.064 77.017 8.376 77.945 8.376C79.017 8.376 79.545 9.128 79.545 10.376H76.057ZM85.6716 11.08C85.6716 13.672 87.3676 15.192 89.5436 15.192C90.5356 15.192 91.4796 14.84 92.2316 14.344L91.6076 13.192C91.0316 13.56 90.4556 13.768 89.7836 13.768C88.5196 13.768 87.6236 12.968 87.4636 11.544H92.4556C92.5036 11.352 92.5356 11.032 92.5356 10.68C92.5356 8.488 91.4156 6.952 89.2876 6.952C87.4476 6.952 85.6716 8.52 85.6716 11.08ZM87.4476 10.376C87.6076 9.064 88.4076 8.376 89.3356 8.376C90.4076 8.376 90.9356 9.128 90.9356 10.376H87.4476ZM94.293 15H96.133V9.512C96.789 8.872 97.237 8.536 97.925 8.536C98.789 8.536 99.157 9.016 99.157 10.312V15H100.997V10.072C100.997 8.088 100.261 6.952 98.581 6.952C97.509 6.952 96.709 7.512 96.005 8.2H95.941L95.813 7.144H94.293V15ZM102.766 11.08C102.766 13.672 104.03 15.192 105.998 15.192C106.798 15.192 107.582 14.776 108.158 14.232L108.094 15.528V18.104H109.934V7.144H108.478L108.318 7.896H108.27C107.614 7.256 106.974 6.952 106.094 6.952C104.382 6.952 102.766 8.52 102.766 11.08ZM104.67 11.064C104.67 9.416 105.486 8.472 106.494 8.472C107.022 8.472 107.55 8.648 108.094 9.128V12.792C107.566 13.4 107.054 13.672 106.446 13.672C105.31 13.672 104.67 12.76 104.67 11.064ZM112.135 12.072C112.135 14.056 112.871 15.192 114.551 15.192C115.623 15.192 116.391 14.664 117.079 13.848H117.127L117.271 15H118.775V7.144H116.935V12.52C116.343 13.288 115.879 13.608 115.191 13.608C114.343 13.608 113.975 13.128 113.975 11.832V7.144H112.135V12.072ZM120.77 12.888C120.77 14.264 121.73 15.192 123.106 15.192C124.034 15.192 124.834 14.728 125.538 14.136H125.586L125.73 15H127.234V10.344C127.234 8.152 126.274 6.952 124.306 6.952C123.058 6.952 121.954 7.432 121.09 7.976L121.762 9.208C122.45 8.792 123.186 8.44 123.97 8.44C125.026 8.44 125.378 9.144 125.394 9.976C122.178 10.328 120.77 11.208 120.77 12.888ZM122.562 12.744C122.562 11.96 123.266 11.4 125.394 11.128V12.888C124.818 13.432 124.322 13.752 123.682 13.752C123.026 13.752 122.562 13.448 122.562 12.744ZM129.481 15H131.321V9.512C131.977 8.872 132.424 8.536 133.113 8.536C133.977 8.536 134.345 9.016 134.345 10.312V15H136.185V10.072C136.185 8.088 135.449 6.952 133.769 6.952C132.697 6.952 131.897 7.512 131.193 8.2H131.129L131.001 7.144H129.481V15ZM138.706 12.344C138.706 14.04 139.378 15.192 141.202 15.192C141.826 15.192 142.37 15.048 142.802 14.904L142.482 13.544C142.258 13.64 141.938 13.72 141.666 13.72C140.914 13.72 140.562 13.272 140.562 12.344V8.6H142.562V7.144H140.562V5H139.026L138.802 7.144L137.586 7.224V8.6H138.706V12.344ZM143.547 11.08C143.547 13.688 145.323 15.192 147.275 15.192C149.243 15.192 151.019 13.688 151.019 11.08C151.019 8.456 149.243 6.952 147.275 6.952C145.323 6.952 143.547 8.456 143.547 11.08ZM145.435 11.08C145.435 9.496 146.123 8.456 147.275 8.456C148.427 8.456 149.131 9.496 149.131 11.08C149.131 12.648 148.427 13.688 147.275 13.688C146.123 13.688 145.435 12.648 145.435 11.08ZM0.99975 30.08C0.99975 32.672 2.69575 34.192 4.87175 34.192C5.86375 34.192 6.80775 33.84 7.55975 33.344L6.93575 32.192C6.35975 32.56 5.78375 32.768 5.11175 32.768C3.84775 32.768 2.95175 31.968 2.79175 30.544H7.78375C7.83175 30.352 7.86375 30.032 7.86375 29.68C7.86375 27.488 6.74375 25.952 4.61575 25.952C2.77575 25.952 0.99975 27.52 0.99975 30.08ZM2.77575 29.376C2.93575 28.064 3.73575 27.376 4.66375 27.376C5.73575 27.376 6.26375 28.128 6.26375 29.376H2.77575ZM9.62113 34H11.4611V28.512C12.1171 27.872 12.5651 27.536 13.2531 27.536C14.1171 27.536 14.4851 28.016 14.4851 29.312V34H16.3251V29.072C16.3251 27.088 15.5891 25.952 13.9091 25.952C12.8371 25.952 12.0371 26.512 11.3331 27.2H11.2691L11.1411 26.144H9.62113V34ZM18.0623 30.08C18.0623 32.688 19.7103 34.192 21.8543 34.192C22.7503 34.192 23.6943 33.84 24.4303 33.184L23.6623 32.016C23.2303 32.368 22.6863 32.688 22.0463 32.688C20.8143 32.688 19.9503 31.648 19.9503 30.08C19.9503 28.496 20.8303 27.456 22.0943 27.456C22.5903 27.456 23.0063 27.664 23.4223 28.032L24.3023 26.864C23.7743 26.352 23.0063 25.952 21.9983 25.952C19.9023 25.952 18.0623 27.456 18.0623 30.08ZM25.0623 30.08C25.0623 32.688 26.8383 34.192 28.7903 34.192C30.7583 34.192 32.5343 32.688 32.5343 30.08C32.5343 27.456 30.7583 25.952 28.7903 25.952C26.8383 25.952 25.0623 27.456 25.0623 30.08ZM26.9503 30.08C26.9503 28.496 27.6383 27.456 28.7903 27.456C29.9423 27.456 30.6463 28.496 30.6463 30.08C30.6463 31.648 29.9423 32.688 28.7903 32.688C27.6383 32.688 26.9503 31.648 26.9503 30.08ZM34.3555 34H36.1955V28.512C36.8515 27.872 37.2995 27.536 37.9875 27.536C38.8515 27.536 39.2195 28.016 39.2195 29.312V34H41.0595V29.072C41.0595 27.088 40.3235 25.952 38.6435 25.952C37.5715 25.952 36.7715 26.512 36.0675 27.2H36.0035L35.8755 26.144H34.3555V34ZM43.5806 31.344C43.5806 33.04 44.2526 34.192 46.0766 34.192C46.7006 34.192 47.2446 34.048 47.6766 33.904L47.3566 32.544C47.1326 32.64 46.8126 32.72 46.5406 32.72C45.7886 32.72 45.4366 32.272 45.4366 31.344V27.6H47.4366V26.144H45.4366V24H43.9006L43.6766 26.144L42.4606 26.224V27.6H43.5806V31.344ZM49.0899 34H50.9299V29.2C51.4099 28.016 52.1619 27.584 52.7859 27.584C53.1219 27.584 53.3299 27.632 53.6019 27.712L53.9219 26.112C53.6819 26 53.4259 25.952 53.0259 25.952C52.1939 25.952 51.3619 26.512 50.8019 27.536H50.7379L50.6099 26.144H49.0899V34ZM54.2851 31.888C54.2851 33.264 55.2451 34.192 56.6211 34.192C57.5491 34.192 58.3491 33.728 59.0531 33.136H59.1011L59.2451 34H60.7491V29.344C60.7491 27.152 59.7891 25.952 57.8211 25.952C56.5731 25.952 55.4691 26.432 54.6051 26.976L55.2771 28.208C55.9651 27.792 56.7011 27.44 57.4851 27.44C58.5411 27.44 58.8931 28.144 58.9091 28.976C55.6931 29.328 54.2851 30.208 54.2851 31.888ZM56.0771 31.744C56.0771 30.96 56.7811 30.4 58.9091 30.128V31.888C58.3331 32.432 57.8371 32.752 57.1971 32.752C56.5411 32.752 56.0771 32.448 56.0771 31.744ZM62.9961 34H64.8361V28.512C65.4441 27.856 66.0041 27.536 66.4841 27.536C67.3161 27.536 67.7001 28.016 67.7001 29.312V34H69.5401V28.512C70.1481 27.856 70.6921 27.536 71.1881 27.536C72.0041 27.536 72.3881 28.016 72.3881 29.312V34H74.2441V29.072C74.2441 27.088 73.4761 25.952 71.8121 25.952C70.8201 25.952 70.0361 26.56 69.2841 27.36C68.9161 26.48 68.2601 25.952 67.1081 25.952C66.1321 25.952 65.3641 26.512 64.7081 27.216H64.6441L64.5161 26.144H62.9961V34ZM75.9685 30.08C75.9685 32.688 77.7445 34.192 79.6965 34.192C81.6645 34.192 83.4405 32.688 83.4405 30.08C83.4405 27.456 81.6645 25.952 79.6965 25.952C77.7445 25.952 75.9685 27.456 75.9685 30.08ZM77.8565 30.08C77.8565 28.496 78.5445 27.456 79.6965 27.456C80.8485 27.456 81.5525 28.496 81.5525 30.08C81.5525 31.648 80.8485 32.688 79.6965 32.688C78.5445 32.688 77.8565 31.648 77.8565 30.08ZM84.4153 33.104C85.1833 33.728 86.3193 34.192 87.3913 34.192C89.3753 34.192 90.4473 33.104 90.4473 31.76C90.4473 30.288 89.2633 29.776 88.1913 29.376C87.3433 29.072 86.5593 28.816 86.5593 28.208C86.5593 27.712 86.9273 27.344 87.7113 27.344C88.3353 27.344 88.8953 27.616 89.4393 28.016L90.2873 26.896C89.6473 26.4 88.7673 25.952 87.6793 25.952C85.9193 25.952 84.8153 26.928 84.8153 28.304C84.8153 29.616 85.9833 30.208 87.0233 30.592C87.8553 30.912 88.7033 31.2 88.7033 31.856C88.7033 32.4 88.3033 32.8 87.4553 32.8C86.6553 32.8 85.9833 32.464 85.2793 31.92L84.4153 33.104ZM95.2911 31.072C95.2911 33.056 96.0271 34.192 97.7071 34.192C98.7791 34.192 99.5471 33.664 100.235 32.848H100.283L100.427 34H101.931V26.144H100.091V31.52C99.4991 32.288 99.0351 32.608 98.3471 32.608C97.4991 32.608 97.1311 32.128 97.1311 30.832V26.144H95.2911V31.072ZM104.262 34H106.102V28.512C106.71 27.856 107.27 27.536 107.75 27.536C108.582 27.536 108.966 28.016 108.966 29.312V34H110.806V28.512C111.414 27.856 111.958 27.536 112.454 27.536C113.27 27.536 113.654 28.016 113.654 29.312V34H115.51V29.072C115.51 27.088 114.742 25.952 113.078 25.952C112.086 25.952 111.302 26.56 110.55 27.36C110.182 26.48 109.526 25.952 108.374 25.952C107.398 25.952 106.63 26.512 105.974 27.216H105.91L105.782 26.144H104.262V34ZM120.515 30.08C120.515 32.688 122.163 34.192 124.307 34.192C125.203 34.192 126.147 33.84 126.883 33.184L126.115 32.016C125.683 32.368 125.139 32.688 124.499 32.688C123.267 32.688 122.403 31.648 122.403 30.08C122.403 28.496 123.283 27.456 124.547 27.456C125.043 27.456 125.459 27.664 125.875 28.032L126.755 26.864C126.227 26.352 125.459 25.952 124.451 25.952C122.355 25.952 120.515 27.456 120.515 30.08ZM127.515 30.08C127.515 32.688 129.291 34.192 131.243 34.192C133.211 34.192 134.987 32.688 134.987 30.08C134.987 27.456 133.211 25.952 131.243 25.952C129.291 25.952 127.515 27.456 127.515 30.08ZM129.403 30.08C129.403 28.496 130.091 27.456 131.243 27.456C132.395 27.456 133.099 28.496 133.099 30.08C133.099 31.648 132.395 32.688 131.243 32.688C130.091 32.688 129.403 31.648 129.403 30.08ZM136.809 34H138.649V29.2C139.129 28.016 139.881 27.584 140.505 27.584C140.841 27.584 141.049 27.632 141.321 27.712L141.641 26.112C141.401 26 141.145 25.952 140.745 25.952C139.913 25.952 139.081 26.512 138.521 27.536H138.457L138.329 26.144H136.809V34ZM142.777 34H144.617V29.2C145.097 28.016 145.849 27.584 146.473 27.584C146.809 27.584 147.017 27.632 147.289 27.712L147.609 26.112C147.369 26 147.113 25.952 146.713 25.952C145.881 25.952 145.049 26.512 144.489 27.536H144.425L144.297 26.144H142.777V34ZM148.078 30.08C148.078 32.672 149.774 34.192 151.95 34.192C152.942 34.192 153.886 33.84 154.638 33.344L154.014 32.192C153.438 32.56 152.862 32.768 152.19 32.768C150.926 32.768 150.03 31.968 149.87 30.544H154.862C154.91 30.352 154.942 30.032 154.942 29.68C154.942 27.488 153.822 25.952 151.694 25.952C149.854 25.952 148.078 27.52 148.078 30.08ZM149.854 29.376C150.014 28.064 150.814 27.376 151.742 27.376C152.814 27.376 153.342 28.128 153.342 29.376H149.854ZM156.721 31.344C156.721 33.04 157.393 34.192 159.217 34.192C159.841 34.192 160.385 34.048 160.817 33.904L160.497 32.544C160.273 32.64 159.953 32.72 159.681 32.72C158.929 32.72 158.577 32.272 158.577 31.344V27.6H160.577V26.144H158.577V24H157.041L156.817 26.144L155.601 26.224V27.6H156.721V31.344ZM161.562 30.08C161.562 32.688 163.338 34.192 165.29 34.192C167.258 34.192 169.034 32.688 169.034 30.08C169.034 27.456 167.258 25.952 165.29 25.952C163.338 25.952 161.562 27.456 161.562 30.08ZM163.45 30.08C163.45 28.496 164.138 27.456 165.29 27.456C166.442 27.456 167.146 28.496 167.146 30.08C167.146 31.648 166.442 32.688 165.29 32.688C164.138 32.688 163.45 31.648 163.45 30.08ZM170.856 34H172.696V29.2C173.176 28.016 173.928 27.584 174.552 27.584C174.888 27.584 175.096 27.632 175.368 27.712L175.688 26.112C175.448 26 175.192 25.952 174.792 25.952C173.96 25.952 173.128 26.512 172.568 27.536H172.504L172.376 26.144H170.856V34Z" fill="#0C0C0C"/>
</svg>
