<svg width="70" height="16" viewBox="0 0 70 16" fill="none" xmlns="http://www.w3.org/2000/svg">
<path d="M0 16H3.42569V10.7714H5.50888C8.7031 10.7714 11.4112 9.24544 11.4112 5.81206C11.4112 2.26648 8.79569 1.09958 5.50888 1.09958H0V16ZM3.42569 8.14586V3.72511H5.30056C7.10599 3.72511 8.07814 4.28611 8.07814 5.81206C8.07814 7.33801 7.17543 8.14586 5.30056 8.14586H3.42569Z" fill="white"/>
<path d="M12.5914 10.1655C12.5914 13.8457 15.1143 16 18.4011 16C19.7668 16 21.2945 15.5288 22.4749 14.7433L21.3408 12.7461C20.5075 13.2398 19.7205 13.4867 18.8641 13.4867C17.3364 13.4867 16.1791 12.7461 15.8782 11.0631H22.7527C22.8221 10.7938 22.8916 10.2553 22.8916 9.67181C22.8916 6.64236 21.2713 4.331 18.0076 4.331C15.2532 4.331 12.5914 6.5526 12.5914 10.1655ZM15.855 9.02104C16.0865 7.53997 17.0123 6.84432 18.0771 6.84432C19.4427 6.84432 19.9983 7.74194 19.9983 9.02104H15.855Z" fill="white"/>
<path d="M24.5715 10.1655C24.5715 13.8457 27.0945 16 30.3813 16C31.7469 16 33.2746 15.5288 34.4551 14.7433L33.3209 12.7461C32.4876 13.2398 31.7006 13.4867 30.8442 13.4867C29.3165 13.4867 28.1592 12.7461 27.8583 11.0631H34.7328C34.8023 10.7938 34.8717 10.2553 34.8717 9.67181C34.8717 6.64236 33.2515 4.331 29.9878 4.331C27.2334 4.331 24.5715 6.5526 24.5715 10.1655ZM27.8352 9.02104C28.0666 7.53997 28.9925 6.84432 30.0572 6.84432C31.4229 6.84432 31.9784 7.74194 31.9784 9.02104H27.8352Z" fill="white"/>
<path d="M37.2229 16H39.8848L40.1625 14.8331H40.2551C41.1578 15.7756 42.2225 16 43.241 16C45.7177 16 48.0786 13.8008 48.0786 9.96354C48.0786 6.5526 46.3426 4.331 43.565 4.331C42.5003 4.331 41.4124 4.80224 40.5328 5.56522L40.6254 3.85975V0H37.2229V16ZM40.6254 12.5891V8.03366C41.2735 7.33801 41.8985 7.02384 42.5929 7.02384C43.9585 7.02384 44.5835 8.03366 44.5835 10.0309C44.5835 12.3198 43.6345 13.3072 42.454 13.3072C41.8754 13.3072 41.2272 13.1276 40.6254 12.5891Z" fill="white"/>
<path d="M49.8202 10.1655C49.8202 13.8682 52.5052 16 55.4217 16C58.315 16 61 13.8682 61 10.1655C61 6.46283 58.315 4.331 55.4217 4.331C52.5052 4.331 49.8202 6.46283 49.8202 10.1655ZM53.3153 10.1655C53.3153 8.23562 54.0097 7.0014 55.4217 7.0014C56.8105 7.0014 57.528 8.23562 57.528 10.1655C57.528 12.0954 56.8105 13.3296 55.4217 13.3296C54.0097 13.3296 53.3153 12.0954 53.3153 10.1655Z" fill="white"/>
<path d="M69.8956 2.41347C69.8956 1.08055 68.8151 0 67.4822 0H65.7583C64.2349 0 63 1.23491 63 2.75825V4.82694V6.89562L63.5603 6.05518C64.0719 5.28784 64.9331 4.82694 65.8553 4.82694H67.4822C68.8151 4.82694 69.8956 3.74639 69.8956 2.41347Z" fill="#0BACA6"/>
</svg>
